<svg xmlns="http://www.w3.org/2000/svg" viewBox="0 0 500 500"><g id="freepik--Plants--inject-92"><g id="freepik--Pines--inject-92"><g id="freepik--Pine--inject-92"><path d="M69.39,205c-8.15,6-45.53,5.19-53.95,0-.74-3.26-.36-10.52.8-20.05l10,5.39L17.2,177.59c1.32-9.24,3.17-19.91,5.33-30.85l6.21,3.46-5.3-8c.42-2.05.84-4.1,1.28-6.15l7.08,3.47-6.08-8.12c1.8-8.26,3.72-16.36,5.65-23.79L37,109.29s-2.12-3.18-4.36-6.48c2-7.31,4-13.81,5.82-19a4.19,4.19,0,0,1,7.89,0c2.5,6.92,5.22,16.33,7.9,26.87l-5,8.39,5.8-5.14c1.2,4.88,2.4,10,3.53,15.1l-8,14.32,9.65-6.75c1.6,7.56,3.08,15.15,4.39,22.42l-7.83,7.78,8.69-2.8c.16.89.31,1.76.45,2.62l-8,10.82,9-4.92C69.29,188.05,70.42,200.42,69.39,205Z" style="fill:#0B1C2E"></path><path d="M69.39,205c-8.15,6-45.53,5.19-53.95,0-.74-3.26-.36-10.52.8-20.05l10,5.39L17.2,177.59c1.32-9.24,3.17-19.91,5.33-30.85l6.21,3.46-5.3-8c.42-2.05.84-4.1,1.28-6.15l7.08,3.47-6.08-8.12c1.8-8.26,3.72-16.36,5.65-23.79L37,109.29s-2.12-3.18-4.36-6.48c2-7.31,4-13.81,5.82-19a4.19,4.19,0,0,1,7.89,0c2.5,6.92,5.22,16.33,7.9,26.87l-5,8.39,5.8-5.14c1.2,4.88,2.4,10,3.53,15.1l-8,14.32,9.65-6.75c1.6,7.56,3.08,15.15,4.39,22.42l-7.83,7.78,8.69-2.8c.16.89.31,1.76.45,2.62l-8,10.82,9-4.92C69.29,188.05,70.42,200.42,69.39,205Z" style="fill:#fff;opacity:0.6000000000000001"></path><path d="M44.39,170.24l11.38-21.43L44.2,163,42.41,96.52,41,137l-8.1-11.71,7.85,19-1.41,41L23.92,171l15.24,20.2-1.29,59.25c0,2.39,8.1,2.39,8.1,0l-1.58-80.23Z" style="fill:#455a64"></path></g><g id="freepik--pine--inject-92"><path d="M107.34,182.8c-5.26,3.88-29.37,3.34-34.8,0-.38-1.64-.31-4.85.09-9.1L78.89,176l-5.82-6.26c.66-5.47,1.71-12.08,3-19.06l3.54,1.47-3.08-3.91c.13-.68.27-1.37.4-2.06l8.42,4.28-7.28-9.91c1.13-5.44,2.35-10.9,3.6-16l5.47,4.56-4.73-7.48c.34-1.37.7-2.7,1-4l4.84,2.62-4-5.81c1.05-3.71,2.09-7,3.07-9.75a2.72,2.72,0,0,1,5.1,0c1.47,4.08,3.06,9.48,4.64,15.56-1.38,3.2-2.47,5.69-2.47,5.69l3.49-1.61c.39,1.55.76,3.14,1.14,4.74-1.65,5.07-3.72,11.42-3.72,11.55l4.51-8.07C104.83,153.61,108.61,177.25,107.34,182.8Z" style="fill:#e0e0e0"></path><path d="M91.22,160.4l7.34-13.82-7.47,9.15-1.15-42.89-.9,26.1-5.22-7.55,5.06,12.26L88,170.09,78,160.9l9.83,13L87,219.75c0,1.54,5.22,1.54,5.22,0l-1-59.35Z" style="fill:#f0f0f0"></path></g><g id="freepik--pine--inject-92"><path d="M478.05,198.48c-5.7,4.21-31.81,3.62-37.7,0a28.92,28.92,0,0,1-.11-7.21l8.9,4.09-8.51-8.44c.5-4.74,1.34-10.49,2.4-16.72l3.25,1.74-3-3.42c.61-3.52,1.3-7.17,2-10.86l5.3,4.26-4.73-7.09c.15-.77.31-1.54.47-2.31l7.25,6-6.14-11.2c1.13-5.17,2.33-10.26,3.52-15l4.74,3.6c-.12-.21-2-3.42-3.9-6.77,1.56-5.93,3.13-11.19,4.59-15.24a2.94,2.94,0,0,1,5.52,0c1.39,3.86,2.88,8.79,4.37,14.38h0l-2.89,6.35,3.45-4.22c.93,3.57,1.85,7.37,2.74,11.26l-6.19,13.65,7.32-8.66c.12.53.24,1.07.35,1.61l-3,7.05,3.46-4.8c1.26,6,2.42,11.93,3.42,17.59l-8.59,10.35,9.29-6.21c.22,1.31.42,2.59.62,3.84L472,180.9l4.87-1.4C478.13,188.59,478.68,195.68,478.05,198.48Z" style="fill:#e0e0e0"></path><path d="M478.05,198.48c-5.7,4.21-31.81,3.62-37.7,0a28.92,28.92,0,0,1-.11-7.21l8.9,4.09-8.51-8.44c.5-4.74,1.34-10.49,2.4-16.72l3.25,1.74-3-3.42c.61-3.52,1.3-7.17,2-10.86l5.3,4.26-4.73-7.09c.15-.77.31-1.54.47-2.31l7.25,6-6.14-11.2c1.13-5.17,2.33-10.26,3.52-15l4.74,3.6c-.12-.21-2-3.42-3.9-6.77,1.56-5.93,3.13-11.19,4.59-15.24a2.94,2.94,0,0,1,5.52,0c1.39,3.86,2.88,8.79,4.37,14.38h0l-2.89,6.35,3.45-4.22c.93,3.57,1.85,7.37,2.74,11.26l-6.19,13.65,7.32-8.66c.12.53.24,1.07.35,1.61l-3,7.05,3.46-4.8c1.26,6,2.42,11.93,3.42,17.59l-8.59,10.35,9.29-6.21c.22,1.31.42,2.59.62,3.84L472,180.9l4.87-1.4C478.13,188.59,478.68,195.68,478.05,198.48Z" style="opacity:0.15"></path><path d="M460.58,174.23l7.95-15-8.09,9.91-1.24-46.44-1,28.26-5.66-8.18,5.48,13.28-1,28.62-10.79-9.94,10.64,14.11-.9,49.47c0,1.67,5.66,1.67,5.66,0l-1.1-64.13Z" style="fill:#e0e0e0"></path></g><g id="freepik--pine--inject-92"><path d="M375.76,156.34c-5.51,3.39-29.95,3.93-35.28,0-.48-2.12-.25-6.84.5-13l6.94,4.09-6.28-9c.71-5,1.66-10.59,2.76-16.39l4.74,3.24L345,118.86c.14-.66.26-1.31.4-2l5.78,3.75-5.05-7.32c1-5,2.15-10,3.31-14.73l6.39,4.22-5.64-7.32c.32-1.28.64-2.53,1-3.76l4.67,3.53-3.9-6.39c1.23-4.51,2.46-8.52,3.61-11.72a2.74,2.74,0,0,1,5.16,0c1,2.69,2,5.94,3,9.59h0l-2.29,6,2.82-3.84,0-.06c1.53,5.58,3.08,11.92,4.52,18.45l-3.69,13.16,4.93-7.39c.93,4.49,1.81,9,2.58,13.32h0l-5.36,18L373.94,134C375.63,144.67,376.46,153.26,375.76,156.34Z" style="fill:#e0e0e0"></path><path d="M375.76,156.34c-5.51,3.39-29.95,3.93-35.28,0-.48-2.12-.25-6.84.5-13l6.94,4.09-6.28-9c.71-5,1.66-10.59,2.76-16.39l4.74,3.24L345,118.86c.14-.66.26-1.31.4-2l5.78,3.75-5.05-7.32c1-5,2.15-10,3.31-14.73l6.39,4.22-5.64-7.32c.32-1.28.64-2.53,1-3.76l4.67,3.53-3.9-6.39c1.23-4.51,2.46-8.52,3.61-11.72a2.74,2.74,0,0,1,5.16,0c1,2.69,2,5.94,3,9.59h0l-2.29,6,2.82-3.84,0-.06c1.53,5.58,3.08,11.92,4.52,18.45l-3.69,13.16,4.93-7.39c.93,4.49,1.81,9,2.58,13.32h0l-5.36,18L373.94,134C375.63,144.67,376.46,153.26,375.76,156.34Z" style="opacity:0.15"></path><path d="M367.28,126.11l-7.41,10.48L359.09,114l4-13.52L359,109.68l-.84-24.24-.94,35-4.15-5,4,9.55-.53,19.86-8.6-8.56,8.44,14.37-.57,38.72c0,1.56,5.3,1.56,5.3,0l-1-46Z" style="fill:#e0e0e0"></path></g><g id="freepik--pine--inject-92"><path d="M235.13,156.11c-5.1,3.14-27.75,3.64-32.7,0-.44-2-.22-6.34.47-12.09l6.43,3.79-5.82-8.39c.66-4.61,1.54-9.81,2.56-15.19l4.39,3-3.84-5.87.36-1.83,5.36,3.48-4.68-6.79c1-4.63,2-9.26,3.07-13.65l5.93,3.91-5.23-6.78c.29-1.19.59-2.35.89-3.48l4.34,3.27L213,93.57c1.14-4.18,2.28-7.9,3.35-10.86a2.54,2.54,0,0,1,4.78,0c.9,2.49,1.85,5.51,2.81,8.89h0l-2.12,5.55,2.62-3.56,0,0c1.42,5.17,2.86,11,4.19,17.1l-3.42,12.19,4.57-6.85c.87,4.17,1.68,8.34,2.4,12.35h0l-5,16.67,6.18-9.59C235,145.29,235.78,153.25,235.13,156.11Z" style="fill:#e0e0e0"></path><path d="M235.13,156.11c-5.1,3.14-27.75,3.64-32.7,0-.44-2-.22-6.34.47-12.09l6.43,3.79-5.82-8.39c.66-4.61,1.54-9.81,2.56-15.19l4.39,3-3.84-5.87.36-1.83,5.36,3.48-4.68-6.79c1-4.63,2-9.26,3.07-13.65l5.93,3.91-5.23-6.78c.29-1.19.59-2.35.89-3.48l4.34,3.27L213,93.57c1.14-4.18,2.28-7.9,3.35-10.86a2.54,2.54,0,0,1,4.78,0c.9,2.49,1.85,5.51,2.81,8.89h0l-2.12,5.55,2.62-3.56,0,0c1.42,5.17,2.86,11,4.19,17.1l-3.42,12.19,4.57-6.85c.87,4.17,1.68,8.34,2.4,12.35h0l-5,16.67,6.18-9.59C235,145.29,235.78,153.25,235.13,156.11Z" style="opacity:0.15"></path><path d="M227.27,128.08l-6.86,9.72-.72-21,3.7-12.54-3.84,8.57-.77-22.47-.87,32.42-3.85-4.61,3.74,8.86-.5,18.4-8-7.92,7.83,13.31-.53,35.89c0,1.45,4.91,1.45,4.91,0l-.92-42.68Z" style="fill:#e0e0e0"></path></g><g id="freepik--pine--inject-92"><path d="M134.19,171.78c-5.95,3.65-32.32,4.23-38.07,0a20.19,20.19,0,0,1-.24-4.8l6.15,2.74L96.31,161c.36-3.63.94-7.9,1.66-12.56l6,3.13-5.25-7.61.39-2.25,9.7,5.63-8.46-12.5c1.31-6.89,2.81-14.06,4.39-20.88l5.62,4.23-4.48-9.06c.22-.87.43-1.72.64-2.58l5.55,4.42-4.25-9.45c1.55-5.88,3.11-11.1,4.56-15.13a3,3,0,0,1,5.58,0c1.4,3.87,2.89,8.82,4.38,14.41l-1.67,10.17,3.2-4.25c1.41,5.67,2.8,11.76,4.07,17.88l-4.19,13.11,5.4-7.16c1.24,6.17,2.32,12.24,3.18,17.77l-2.43,5.95,3.05-1.85c.21,1.47.41,2.9.57,4.25l-5.3,8.82,5.78-4.67C134.52,166,134.63,169.86,134.19,171.78Z" style="fill:#e0e0e0"></path><path d="M134.19,171.78c-5.95,3.65-32.32,4.23-38.07,0a20.19,20.19,0,0,1-.24-4.8l6.15,2.74L96.31,161c.36-3.63.94-7.9,1.66-12.56l6,3.13-5.25-7.61.39-2.25,9.7,5.63-8.46-12.5c1.31-6.89,2.81-14.06,4.39-20.88l5.62,4.23-4.48-9.06c.22-.87.43-1.72.64-2.58l5.55,4.42-4.25-9.45c1.55-5.88,3.11-11.1,4.56-15.13a3,3,0,0,1,5.58,0c1.4,3.87,2.89,8.82,4.38,14.41l-1.67,10.17,3.2-4.25c1.41,5.67,2.8,11.76,4.07,17.88l-4.19,13.11,5.4-7.16c1.24,6.17,2.32,12.24,3.18,17.77l-2.43,5.95,3.05-1.85c.21,1.47.41,2.9.57,4.25l-5.3,8.82,5.78-4.67C134.52,166,134.63,169.86,134.19,171.78Z" style="opacity:0.15"></path><path d="M113.76,147.28l-8-15.11,8.16,10,1.26-46.91,1,28.55,5.72-8.26L116.31,129l1,28.91,10.89-10-10.75,14.25.91,53c0,1.68-5.71,1.68-5.71,0l1.11-67.86Z" style="fill:#e0e0e0"></path></g><g id="freepik--pine--inject-92"><path d="M398.35,159.53c-5.1,3.14-27.7,3.64-32.64,0-.37-1.65-.27-5,.18-9.49l5.06,1-4.71-4.08c.22-1.74.47-3.59.76-5.53l9.38,3.74-8.93-6.61c.95-6,2.18-12.61,3.57-19.23l7.26,5.8-6.59-9c.58-2.64,1.17-5.28,1.78-7.84l5.89,3.69-5.19-6.63c.56-2.29,1.13-4.52,1.69-6.64l3.5,3.83L377,94.45c.89-3.08,1.76-5.85,2.6-8.15a2.53,2.53,0,0,1,4.77,0c1.39,3.84,2.9,8.94,4.38,14.68h0l-2.65,5.68,3.48-2.4c1.1,4.47,2.19,9.22,3.2,14h0l-5.33,11,6.2-6.78c.46,2.3.91,4.59,1.32,6.83l-3.45,5.17,4-2.31c.86,4.82,1.58,9.39,2.11,13.39h0l-5.53,8.77,6.15-3.31A33.06,33.06,0,0,1,398.35,159.53Z" style="fill:#e0e0e0"></path><path d="M380.83,138.54l-6.88-13,7,8.58L382,94l.84,24.46,4.9-7.08L383,122.84l.85,24.78,9.34-8.61L384,151.23l.78,40.18c0,1.45-4.9,1.45-4.9,0l.95-52.87Z" style="fill:#f0f0f0"></path></g><g id="freepik--pine--inject-92"><path d="M260.45,151.69c4.39,2.7,23.88,3.13,28.13,0,.33-1.43.24-4.33-.16-8.19l-4.36.84,4.07-3.52q-.28-2.25-.66-4.77l-8.09,3.23,7.7-5.7c-.82-5.14-1.88-10.86-3.08-16.57l-6.25,5,5.68-7.73c-.5-2.28-1-4.55-1.53-6.76l-5.08,3.17,4.47-5.7c-.48-2-1-3.9-1.46-5.73l-3,3.3,2-7c-.76-2.65-1.51-5-2.23-7a2.19,2.19,0,0,0-4.12,0c-1.2,3.31-2.49,7.71-3.77,12.66h0l2.28,4.89-3-2.07c-1,3.85-1.89,8-2.77,12.07h0l4.6,9.48-5.34-5.85c-.4,2-.79,4-1.14,5.9l3,4.45-3.42-2c-.74,4.16-1.36,8.1-1.82,11.55h0l4.77,7.56-5.3-2.86A28.18,28.18,0,0,0,260.45,151.69Z" style="fill:#e0e0e0"></path><path d="M275.55,133.59l5.93-11.17-6,7.4-.93-34.66-.73,21.09-4.22-6.1,4.09,9.91-.73,21.36L264.88,134l7.94,10.53-.67,34.64c0,1.24,4.22,1.24,4.22,0l-.82-45.58Z" style="fill:#f0f0f0"></path></g><g id="freepik--pine--inject-92"><path d="M206.84,142.35c-5.1,3.14-27.7,3.63-32.64,0-.37-1.65-.27-5,.18-9.5l5.06,1-4.71-4.08c.22-1.73.47-3.59.76-5.53l9.38,3.75-8.93-6.62c.95-6,2.18-12.6,3.57-19.22l7.26,5.79-6.59-9c.58-2.65,1.17-5.28,1.78-7.84l5.89,3.68-5.19-6.62c.56-2.3,1.13-4.52,1.69-6.64l3.5,3.83-2.32-8.1c.89-3.08,1.76-5.84,2.6-8.15a2.53,2.53,0,0,1,4.77,0c1.39,3.85,2.9,9,4.38,14.69h0l-2.65,5.68,3.48-2.41c1.1,4.48,2.19,9.22,3.2,14h0l-5.33,11,6.2-6.78c.46,2.31.91,4.59,1.32,6.84l-3.45,5.17,4-2.32c.86,4.83,1.58,9.39,2.11,13.4h0l-5.53,8.77,6.15-3.32A33.14,33.14,0,0,1,206.84,142.35Z" style="fill:#e0e0e0"></path><path d="M189.32,121.36l-6.88-13,7,8.58,1.08-40.21.84,24.47,4.9-7.08-4.75,11.5.85,24.78,9.34-8.61L192.49,134l.78,40.19c0,1.44-4.9,1.44-4.9,0l.95-52.87Z" style="fill:#f0f0f0"></path></g></g><g id="freepik--pine--inject-92"><path d="M448.09,168.26c-6.64,4.1-36.17,4.75-42.61,0-.59-2.57-.28-8.36.64-15.95l8.35,3.57-7.7-8.56c.74-5.2,1.69-11,2.8-17.06l5.11,2.24-4.78-4.05c.27-1.41.53-2.83.81-4.25l8.54,4.92-7.67-9.3c.95-4.72,2-9.46,3-14.1l4.41,2.37-3.6-6.2c1.09-4.52,3.19-12.61,4.29-16.58l4.49,3.57-3.79-6c1.11-3.87,2.22-7.33,3.27-10.25a3.32,3.32,0,0,1,6.23,0c1.61,4.45,3.33,10.18,5,16.63h0l-3.48,7.92,4.63-3.51c1.21,4.76,2.4,9.8,3.55,15h0l-5.84,14.73,7-9.37q.61,3,1.22,5.91l-4.16,8.18,4.77-5.12c1.14,5.83,2.17,11.56,3,16.89h0l-9.53,15L446.46,145c.24,1.61.46,3.18.67,4.67l-7.2,8.83,7.76-4.15C448.43,160.92,448.63,165.92,448.09,168.26Z" style="fill:#0B1C2E"></path><path d="M448.09,168.26c-6.64,4.1-36.17,4.75-42.61,0-.59-2.57-.28-8.36.64-15.95l8.35,3.57-7.7-8.56c.74-5.2,1.69-11,2.8-17.06l5.11,2.24-4.78-4.05c.27-1.41.53-2.83.81-4.25l8.54,4.92-7.67-9.3c.95-4.72,2-9.46,3-14.1l4.41,2.37-3.6-6.2c1.09-4.52,3.19-12.61,4.29-16.58l4.49,3.57-3.79-6c1.11-3.87,2.22-7.33,3.27-10.25a3.32,3.32,0,0,1,6.23,0c1.61,4.45,3.33,10.18,5,16.63h0l-3.48,7.92,4.63-3.51c1.21,4.76,2.4,9.8,3.55,15h0l-5.84,14.73,7-9.37q.61,3,1.22,5.91l-4.16,8.18,4.77-5.12c1.14,5.83,2.17,11.56,3,16.89h0l-9.53,15L446.46,145c.24,1.61.46,3.18.67,4.67l-7.2,8.83,7.76-4.15C448.43,160.92,448.63,165.92,448.09,168.26Z" style="fill:#fff;opacity:0.6000000000000001"></path><path d="M437.86,131.75l-8.95,12.66L428,117.08l4.83-16.34-5,11.16-1-29.28-1.14,42.25-5-6,4.88,11.55-.65,24-10.39-10.33,10.2,17.36L424,214.61c0,1.89,6.4,1.89,6.4,0l-1.19-62Z" style="fill:#455a64"></path></g><g id="freepik--pine--inject-92"><path d="M286.32,135.16c6.64,4.1,36.17,4.75,42.61,0,.59-2.57.28-8.36-.64-16l-8.35,3.57,7.7-8.56c-.74-5.2-1.69-11-2.8-17.07l-5.11,2.24,4.78-4c-.27-1.41-.53-2.83-.81-4.26L315.16,96l7.67-9.3c-.95-4.72-2-9.46-3-14.1L315.4,75l3.6-6.2c-1.09-4.52-3.19-12.61-4.29-16.58l-4.49,3.56,3.79-6c-1.11-3.87-2.22-7.33-3.27-10.25a3.32,3.32,0,0,0-6.23,0c-1.61,4.44-3.33,10.18-5,16.63h0L303,64.06l-4.63-3.51c-1.21,4.77-2.4,9.81-3.55,15h0l5.84,14.73-7-9.37q-.62,3-1.22,5.91L296.55,95l-4.77-5.12c-1.14,5.83-2.17,11.55-3,16.89h0l9.53,15L288,111.87c-.24,1.61-.46,3.17-.67,4.67l7.2,8.83-7.76-4.15C286,127.82,285.78,132.81,286.32,135.16Z" style="fill:#0B1C2E"></path><path d="M286.32,135.16c6.64,4.1,36.17,4.75,42.61,0,.59-2.57.28-8.36-.64-16l-8.35,3.57,7.7-8.56c-.74-5.2-1.69-11-2.8-17.07l-5.11,2.24,4.78-4c-.27-1.41-.53-2.83-.81-4.26L315.16,96l7.67-9.3c-.95-4.72-2-9.46-3-14.1L315.4,75l3.6-6.2c-1.09-4.52-3.19-12.61-4.29-16.58l-4.49,3.56,3.79-6c-1.11-3.87-2.22-7.33-3.27-10.25a3.32,3.32,0,0,0-6.23,0c-1.61,4.44-3.33,10.18-5,16.63h0L303,64.06l-4.63-3.51c-1.21,4.77-2.4,9.81-3.55,15h0l5.84,14.73-7-9.37q-.62,3-1.22,5.91L296.55,95l-4.77-5.12c-1.14,5.83-2.17,11.55-3,16.89h0l9.53,15L288,111.87c-.24,1.61-.46,3.17-.67,4.67l7.2,8.83-7.76-4.15C286,127.82,285.78,132.81,286.32,135.16Z" style="fill:#fff;opacity:0.6000000000000001"></path><path d="M296.55,98.64l8.95,12.67L306.44,84l-4.83-16.34,5,11.16,1-29.28,1.14,42.25,5-6L308.9,97.31l.65,24L319.93,111l-10.19,17.36.69,53.19c0,1.88-6.4,1.88-6.4,0l1.19-62Z" style="fill:#455a64"></path></g><g id="freepik--pine--inject-92"><path d="M139.35,135.26c6.64,4.09,36.17,4.74,42.61,0,.59-2.58.29-8.37-.64-16L173,122.87l7.7-8.56c-.74-5.2-1.69-11-2.79-17.06l-5.12,2.24,4.78-4c-.27-1.41-.53-2.83-.81-4.25l-8.54,4.92,7.68-9.3c-1-4.72-2-9.46-3-14.1l-4.41,2.37,3.6-6.2c-1.09-4.52-3.18-12.61-4.29-16.58l-4.49,3.57,3.8-6c-1.12-3.87-2.23-7.33-3.28-10.25a3.32,3.32,0,0,0-6.23,0c-1.61,4.45-3.33,10.18-5,16.63h0L156,64.16l-4.63-3.51c-1.21,4.76-2.4,9.81-3.55,15h0l5.84,14.73-7-9.36c-.41,2-.82,3.94-1.22,5.9l4.17,8.18L144.81,90c-1.14,5.83-2.17,11.56-3,16.9h0l9.53,15L141,112c-.24,1.61-.46,3.18-.66,4.68l7.19,8.83-7.76-4.15C139,127.91,138.81,132.91,139.35,135.26Z" style="fill:#0B1C2E"></path><path d="M139.35,135.26c6.64,4.09,36.17,4.74,42.61,0,.59-2.58.29-8.37-.64-16L173,122.87l7.7-8.56c-.74-5.2-1.69-11-2.79-17.06l-5.12,2.24,4.78-4c-.27-1.41-.53-2.83-.81-4.25l-8.54,4.92,7.68-9.3c-1-4.72-2-9.46-3-14.1l-4.41,2.37,3.6-6.2c-1.09-4.52-3.18-12.61-4.29-16.58l-4.49,3.57,3.8-6c-1.12-3.87-2.23-7.33-3.28-10.25a3.32,3.32,0,0,0-6.23,0c-1.61,4.45-3.33,10.18-5,16.63h0L156,64.16l-4.63-3.51c-1.21,4.76-2.4,9.81-3.55,15h0l5.84,14.73-7-9.36c-.41,2-.82,3.94-1.22,5.9l4.17,8.18L144.81,90c-1.14,5.83-2.17,11.56-3,16.9h0l9.53,15L141,112c-.24,1.61-.46,3.18-.66,4.68l7.19,8.83-7.76-4.15C139,127.91,138.81,132.91,139.35,135.26Z" style="fill:#fff;opacity:0.6000000000000001"></path><path d="M149.58,98.74l8.95,12.66.94-27.33-4.83-16.34,5,11.16,1-29.28,1.14,42.25,5-6-4.87,11.55.64,24L173,111.06l-10.2,17.35.69,53.19c0,1.89-6.4,1.89-6.4,0l1.19-62Z" style="fill:#455a64"></path></g><g id="freepik--Shrubbery--inject-92"><path d="M482,265.29a7.63,7.63,0,0,0-4.43-5.05,4.42,4.42,0,0,0,2.59-4.39,11.81,11.81,0,0,0-1.78-5.11,5.79,5.79,0,0,0-.58-11c2-2.53,3-6.34,1.05-8.93-1.57-2.12-4.51-2.69-7.15-2.68s-5.38.61-6.75,2.74a5.25,5.25,0,0,0-6.84-4.36,6.88,6.88,0,0,0,1.22-2.54,8.32,8.32,0,0,0-1-6.36,4.61,4.61,0,0,0-2.15-2.06,3.45,3.45,0,0,0-1.11-.07,20.56,20.56,0,0,0-3.51.08,8.7,8.7,0,0,0-12.79-10.17,7.41,7.41,0,0,0-14.64-1.87,5.45,5.45,0,0,0-10.54,1,7.64,7.64,0,0,0-6.92-8.53,4.89,4.89,0,0,0,3.57-5.19,7.32,7.32,0,0,0-3.79-5.45,4.62,4.62,0,0,0-3.52-8.13,6.49,6.49,0,0,0-6.6-5.52,8,8,0,0,0-7,5.52,8.12,8.12,0,0,0-11.56,9.49,11.34,11.34,0,0,0-5.87-3.25c-2.24-.34-4.8.64-5.72,2.72-.78-2.33-2.09-4.64-4.25-5.81s-5.29-.76-6.52,1.37a9.72,9.72,0,0,0-1.26-3.48,10,10,0,0,0-1.1-1.5c-.16-.19-.33-.4-.51-.58s-.11-.13-.18-.19-1.1-.64-1.3-.55c2.35-1,2.5-4.66.74-6.53s-4.59-2.27-7.15-2a5.71,5.71,0,1,0-11.4-.07c-1.18-2.47-5-2.48-7.05-.68s-2.78,4.66-3.32,7.34a7.81,7.81,0,0,0-9.91-1,7.43,7.43,0,0,0-6.08-9c1.79-3.33-1.83-7.55-5.61-7.63s-7.07,2.55-9.59,5.38c-5.39-2.79-12.93,2.33-12.32,8.36-3.81-4.59-12-4.23-15.45.67a7.84,7.84,0,0,0-9.46-5.28c1.61-4.93-4.73-10.25-9.31-7.8A5.86,5.86,0,1,0,233.59,159c-5.27-.54-9.72,6.13-7.19,10.79a6.67,6.67,0,0,0-9,1.89c.93-2.35-2-5.11-4.3-4a4.94,4.94,0,0,0-9.27-3.3c.06-3-3.77-4.77-6.51-3.68s-4.32,4-5,6.86c-1.79-4.11-8.62-4.51-10.87-.63a9,9,0,0,0-18-1.73,7.74,7.74,0,0,0-14.15,6c-5.4-.9-9.58,7.12-5.75,11-2.14-2.69-7.13-2-8.48,1.13,1.22-3.11-2-7-5.25-6.33a5.76,5.76,0,1,0-11.08-3.07c-2-3.56-7.82-2.89-10.43.25s-2.93,7.55-3.12,11.64c-2.1-1.57-5.36.31-6,2.85s.58,5.17,2,7.33a8.16,8.16,0,0,0-9.48,5,4.9,4.9,0,0,0-9-3.45c-.16-3.71-6-4.76-8.49-2s-2.22,7-.94,10.54c-2-3.11-7.45-1.6-8.84,1.84s.12,7.37,2.2,10.44c-4.13-1.06-8.56,3.34-7.54,7.47-3.47-3.35-10.5.75-9.28,5.42-1.06-3.37-6.14-3.86-8.8-1.55s-3.38,6.16-3.46,9.69c-1.19-2.55-5.33-2.12-7,.13s-1.65,5.31-1.49,8.12c-3.56-1.59-7.91,3.11-6,6.53a11.24,11.24,0,0,0,2.48,21.5H479.86C481.72,274.29,482.51,267.55,482,265.29Z" style="fill:#e0e0e0"></path></g></g><g id="freepik--Floor--inject-92"><g id="freepik--Field--inject-92"><ellipse id="freepik--Grass--inject-92" cx="249.39" cy="325.55" rx="244.73" ry="149.77" style="fill:#f5f5f5"></ellipse><path d="M32.18,343.05A7.54,7.54,0,0,0,31,340.66a8.37,8.37,0,0,0-1.13-1.18c-.26-.23-.67-.61-1-.5-.11,0-.1.24-.05.31.25.33.61.55.84.91a5.2,5.2,0,0,1,.4,1,18.41,18.41,0,0,1,.8,2.65,19.17,19.17,0,0,1,.34,2.51c0,.42.06.82.11,1.24a5,5,0,0,0,.28,1.14c0,.13.26.36.41.2a4.2,4.2,0,0,0,.75-3A10.47,10.47,0,0,0,32.18,343.05Z" style="fill:#e0e0e0"></path><path d="M35.27,330.22c-1.79,2.2-1.8,5.39-1.82,8.11,0,1.63,0,3.27,0,4.9a19.06,19.06,0,0,0,.45,5.24c.06.19.43.56.56.22.52-1.43.33-3.34.35-4.85s0-3.22,0-4.83a42.43,42.43,0,0,1,.22-4.36c.16-1.36.47-2.7.64-4.06C35.73,330.43,35.45,330,35.27,330.22Z" style="fill:#e0e0e0"></path><path d="M39.44,338.9c-.92.18-1.6,1.23-2,2a9.75,9.75,0,0,0-.81,2.23,16,16,0,0,0-.4,2.66c-.07,1-.27,2,.39,2.83.07.1.29.22.41.12.69-.58.51-1.72.57-2.54a20.1,20.1,0,0,1,.38-2.68,13.23,13.23,0,0,1,.74-2.2,9.16,9.16,0,0,0,.92-2.08C39.65,339.14,39.61,338.87,39.44,338.9Z" style="fill:#e0e0e0"></path><path d="M317.83,226.55a7.6,7.6,0,0,0-1.19-2.38,7.89,7.89,0,0,0-1.13-1.18c-.26-.23-.67-.61-1-.51-.11,0-.11.24-.05.31.25.33.61.55.84.91a5.5,5.5,0,0,1,.4,1,18.8,18.8,0,0,1,.8,2.65,19.17,19.17,0,0,1,.34,2.51c0,.42.06.83.11,1.25a5,5,0,0,0,.28,1.13c0,.13.26.36.41.2a4.18,4.18,0,0,0,.75-3A10.54,10.54,0,0,0,317.83,226.55Z" style="fill:#e0e0e0"></path><path d="M320.92,213.72c-1.79,2.2-1.8,5.39-1.82,8.11,0,1.63,0,3.27,0,4.91a19.13,19.13,0,0,0,.45,5.24c.06.18.43.55.56.21.52-1.43.33-3.33.35-4.85s0-3.22,0-4.83a37.17,37.17,0,0,1,.22-4.35c.16-1.37.47-2.71.64-4.07C321.38,213.93,321.1,213.49,320.92,213.72Z" style="fill:#e0e0e0"></path><path d="M325.09,222.4c-.93.18-1.6,1.23-2,2a9.93,9.93,0,0,0-.81,2.23,16,16,0,0,0-.4,2.66c-.07,1-.27,2,.38,2.83.08.1.3.22.42.12.68-.58.51-1.72.57-2.53a20,20,0,0,1,.38-2.69,13.23,13.23,0,0,1,.74-2.2,9.16,9.16,0,0,0,.92-2.08C325.3,222.64,325.26,222.37,325.09,222.4Z" style="fill:#e0e0e0"></path><path d="M94.1,425.15a6.82,6.82,0,0,0-1-2.09,7.41,7.41,0,0,0-1-1c-.23-.2-.58-.53-.91-.44-.1,0-.09.21,0,.27.22.29.54.48.74.79a5.24,5.24,0,0,1,.35.85,15.87,15.87,0,0,1,.7,2.32,17.9,17.9,0,0,1,.3,2.2c0,.36,0,.72.09,1.09a5,5,0,0,0,.25,1c0,.11.23.31.35.18a3.61,3.61,0,0,0,.66-2.66A9,9,0,0,0,94.1,425.15Z" style="fill:#e0e0e0"></path><path d="M96.8,413.92c-1.56,1.93-1.57,4.72-1.59,7.1,0,1.43,0,2.86,0,4.29a17.18,17.18,0,0,0,.39,4.59c.06.16.39.48.5.18a14.26,14.26,0,0,0,.31-4.24c0-1.41,0-2.81,0-4.22a32.19,32.19,0,0,1,.19-3.81c.13-1.2.41-2.37.55-3.56C97.2,414.11,97,413.73,96.8,413.92Z" style="fill:#e0e0e0"></path><path d="M100.45,421.52c-.81.16-1.4,1.08-1.76,1.76a8.92,8.92,0,0,0-.71,2,14,14,0,0,0-.34,2.32A3.31,3.31,0,0,0,98,430c.07.09.26.19.36.1.6-.5.45-1.5.5-2.21a15.47,15.47,0,0,1,.34-2.35,9.84,9.84,0,0,1,.64-1.92,8.51,8.51,0,0,0,.81-1.83C100.63,421.73,100.6,421.49,100.45,421.52Z" style="fill:#e0e0e0"></path><path d="M234.79,205.9a6.82,6.82,0,0,0-1-2.09,7.41,7.41,0,0,0-1-1c-.23-.2-.59-.53-.91-.44-.1,0-.1.21,0,.27.22.29.54.48.73.79a4.52,4.52,0,0,1,.36.85,17.2,17.2,0,0,1,.7,2.32,16.15,16.15,0,0,1,.29,2.2c0,.36.05.72.1,1.09a4.36,4.36,0,0,0,.25,1c0,.11.23.31.35.18a3.66,3.66,0,0,0,.66-2.66A9,9,0,0,0,234.79,205.9Z" style="fill:#e0e0e0"></path><path d="M237.49,194.67c-1.56,1.93-1.58,4.72-1.59,7.1,0,1.43,0,2.86,0,4.29a17.18,17.18,0,0,0,.39,4.59c0,.15.38.48.49.18a13.63,13.63,0,0,0,.31-4.24c0-1.41,0-2.81,0-4.22a37.1,37.1,0,0,1,.19-3.81c.14-1.2.41-2.37.56-3.56C237.89,194.86,237.65,194.48,237.49,194.67Z" style="fill:#e0e0e0"></path><path d="M241.13,202.27c-.8.16-1.39,1.08-1.75,1.76a8.43,8.43,0,0,0-.71,1.95,14,14,0,0,0-.35,2.32,3.36,3.36,0,0,0,.34,2.48c.06.08.25.19.36.1.6-.5.45-1.5.5-2.21a16.82,16.82,0,0,1,.33-2.35,10.58,10.58,0,0,1,.65-1.92,8.51,8.51,0,0,0,.81-1.83C241.32,202.48,241.28,202.24,241.13,202.27Z" style="fill:#e0e0e0"></path><path d="M376.17,390.85a6.82,6.82,0,0,0-1-2.09,7.41,7.41,0,0,0-1-1c-.23-.2-.58-.53-.91-.44-.1,0-.09.21-.05.27.22.29.54.48.74.79a5.24,5.24,0,0,1,.35.85,17.2,17.2,0,0,1,.7,2.32,17.9,17.9,0,0,1,.3,2.2c0,.36.05.72.09,1.09a5,5,0,0,0,.25,1c0,.11.23.31.35.18a3.61,3.61,0,0,0,.66-2.66A9,9,0,0,0,376.17,390.85Z" style="fill:#e0e0e0"></path><path d="M378.87,379.62c-1.56,1.93-1.57,4.72-1.59,7.1,0,1.43,0,2.86,0,4.29a17.18,17.18,0,0,0,.39,4.59c.06.16.38.48.5.18a14.26,14.26,0,0,0,.31-4.24c0-1.41,0-2.81,0-4.22a32.19,32.19,0,0,1,.19-3.81c.13-1.2.41-2.37.55-3.56C379.27,379.81,379,379.43,378.87,379.62Z" style="fill:#e0e0e0"></path><path d="M382.52,387.22c-.81.16-1.4,1.08-1.76,1.76a8.92,8.92,0,0,0-.71,1.95,14,14,0,0,0-.34,2.32,3.31,3.31,0,0,0,.33,2.48c.07.09.26.19.36.1.6-.5.45-1.5.5-2.21a15.47,15.47,0,0,1,.34-2.35,9.84,9.84,0,0,1,.64-1.92,8.51,8.51,0,0,0,.81-1.83C382.7,387.43,382.67,387.19,382.52,387.22Z" style="fill:#e0e0e0"></path><path d="M318.62,316.27a6.87,6.87,0,0,1,1.09-2.18,7.52,7.52,0,0,1,1-1.08c.25-.21.61-.56,1-.47.1,0,.09.23,0,.29a10,10,0,0,0-.76.83,4.64,4.64,0,0,0-.37.89,15.68,15.68,0,0,0-.73,2.42,16.1,16.1,0,0,0-.31,2.3c0,.38-.06.75-.1,1.14a5.18,5.18,0,0,1-.26,1c0,.12-.24.33-.37.19a3.78,3.78,0,0,1-.69-2.78A9.47,9.47,0,0,1,318.62,316.27Z" style="fill:#e0e0e0"></path><path d="M315.8,304.53c1.63,2,1.64,4.94,1.66,7.42,0,1.49,0,3,0,4.49a17.42,17.42,0,0,1-.4,4.79c-.06.17-.4.51-.52.19a14.24,14.24,0,0,1-.32-4.43c0-1.47,0-2.94,0-4.41a35.3,35.3,0,0,0-.2-4c-.14-1.25-.43-2.47-.58-3.71C315.38,304.73,315.63,304.33,315.8,304.53Z" style="fill:#e0e0e0"></path><path d="M312,312.47c.84.17,1.45,1.13,1.83,1.84a8.74,8.74,0,0,1,.74,2,15.51,15.51,0,0,1,.37,2.43,3.55,3.55,0,0,1-.35,2.59c-.07.09-.27.2-.38.11-.63-.53-.47-1.57-.53-2.32a18.5,18.5,0,0,0-.34-2.45,11.6,11.6,0,0,0-.68-2,8.54,8.54,0,0,1-.84-1.91C311.79,312.69,311.83,312.44,312,312.47Z" style="fill:#e0e0e0"></path><path d="M425,266.07a6.74,6.74,0,0,0-1-2.08,7.43,7.43,0,0,0-1-1c-.23-.2-.58-.53-.91-.44-.1,0-.09.21-.05.27.22.29.54.48.74.79a4.9,4.9,0,0,1,.35.85,16.64,16.64,0,0,1,.7,2.31,16.21,16.21,0,0,1,.29,2.19c0,.37.05.72.09,1.09a5.74,5.74,0,0,0,.25,1c0,.11.23.31.36.17a3.61,3.61,0,0,0,.65-2.65A9,9,0,0,0,425,266.07Z" style="fill:#e0e0e0"></path><path d="M427.74,254.87c-1.56,1.92-1.57,4.71-1.59,7.08,0,1.42,0,2.86,0,4.28a17,17,0,0,0,.39,4.57c.06.16.38.49.49.19a13.59,13.59,0,0,0,.31-4.23c0-1.41,0-2.81,0-4.21a34.72,34.72,0,0,1,.19-3.81c.14-1.18.41-2.35.56-3.54C428.14,255.06,427.89,254.68,427.74,254.87Z" style="fill:#e0e0e0"></path><path d="M431.37,262.45c-.8.15-1.39,1.07-1.75,1.75a8.92,8.92,0,0,0-.71,1.95,15.09,15.09,0,0,0-.34,2.32,3.29,3.29,0,0,0,.33,2.47c.07.08.26.19.36.1.6-.51.45-1.5.51-2.21a15.31,15.31,0,0,1,.32-2.34,10.85,10.85,0,0,1,.65-1.92,7.75,7.75,0,0,0,.8-1.82C431.56,262.66,431.52,262.42,431.37,262.45Z" style="fill:#e0e0e0"></path><path d="M439.06,345.47a6.87,6.87,0,0,0-1.09-2.18,6.59,6.59,0,0,0-1-1.08c-.24-.21-.61-.56-1-.47-.1,0-.09.22,0,.29a10,10,0,0,1,.76.83,4.64,4.64,0,0,1,.37.89,16.9,16.9,0,0,1,.74,2.42,19.68,19.68,0,0,1,.31,2.29c0,.39.05.76.09,1.14a6.09,6.09,0,0,0,.26,1c0,.12.24.33.38.19a3.82,3.82,0,0,0,.68-2.78A9.4,9.4,0,0,0,439.06,345.47Z" style="fill:#e0e0e0"></path><path d="M441.88,333.73c-1.63,2-1.64,4.93-1.66,7.42,0,1.49,0,3,0,4.49a17.42,17.42,0,0,0,.4,4.79c.06.17.4.51.52.19a14.26,14.26,0,0,0,.32-4.43c0-1.47,0-2.94,0-4.42a35.24,35.24,0,0,1,.2-4c.15-1.25.43-2.47.58-3.72C442.3,333.92,442.05,333.53,441.88,333.73Z" style="fill:#e0e0e0"></path><path d="M445.69,341.67c-.84.17-1.45,1.13-1.83,1.84a8.74,8.74,0,0,0-.74,2,14.25,14.25,0,0,0-.36,2.43,3.46,3.46,0,0,0,.35,2.59c.06.09.26.2.37.11.63-.53.47-1.57.53-2.32a16.94,16.94,0,0,1,.35-2.46,10.93,10.93,0,0,1,.67-2,8.74,8.74,0,0,0,.84-1.91C445.89,341.89,445.85,341.64,445.69,341.67Z" style="fill:#e0e0e0"></path><path d="M247.26,440.1a6.87,6.87,0,0,0-1.09-2.18,7,7,0,0,0-1-1.08c-.24-.21-.61-.56-1-.47-.1,0-.09.23,0,.29a10,10,0,0,1,.76.83,4.64,4.64,0,0,1,.37.89,15.68,15.68,0,0,1,.73,2.42,17.68,17.68,0,0,1,.32,2.3c0,.38.05.75.09,1.14a5.18,5.18,0,0,0,.26,1c0,.12.24.33.37.19a3.78,3.78,0,0,0,.69-2.78A9.47,9.47,0,0,0,247.26,440.1Z" style="fill:#e0e0e0"></path><path d="M250.08,428.36c-1.63,2-1.64,4.94-1.66,7.42,0,1.49,0,3,.05,4.49a17.42,17.42,0,0,0,.4,4.79c.06.17.4.51.52.19a14.24,14.24,0,0,0,.32-4.43c0-1.47,0-2.94,0-4.41a35.3,35.3,0,0,1,.2-4c.14-1.25.43-2.47.58-3.71C250.5,428.56,250.25,428.16,250.08,428.36Z" style="fill:#e0e0e0"></path><path d="M253.89,436.31c-.84.16-1.45,1.12-1.83,1.83a8.74,8.74,0,0,0-.74,2,15.51,15.51,0,0,0-.37,2.43,3.55,3.55,0,0,0,.35,2.59c.07.09.27.2.38.11.63-.53.47-1.57.53-2.32a18.5,18.5,0,0,1,.34-2.45,11.6,11.6,0,0,1,.68-2,8.54,8.54,0,0,0,.84-1.91C254.09,436.52,254.05,436.27,253.89,436.31Z" style="fill:#e0e0e0"></path></g></g><g id="freepik--Clouds--inject-92"><path id="freepik--Cloud--inject-92" d="M384.29,35.13c0-4.48-4.92-7.6-10.49-8.13-6.56-.62-11.21,2.31-11.37,7.48-4.29-1.77-8.81-.64-8.47,4.08-1.12-1.28-5.29-1.25-6.79-.89a5.88,5.88,0,0,0-3.74,3.19,4.33,4.33,0,0,0-.39,2.41c-2.5-.82-8.19-1.32-9.61,1-2.53,4.09,7.58,4.22,9.62,3,.44,3.18,11.31,3.7,13.94.77,2.06,2.07,5,2.53,8.2,2.72,5.38.32,8.68-1.51,12.87-3.65,4.57,3.87,12.46,3.94,16.57-.48,1.05,1,3.94,1.29,6.25.74,1.52-.36,1.87-1,1.87-1a13.21,13.21,0,0,0,2.79.84c3,.62,8.54,0,6.21-2.72-.8-.92-3.7-1.5-4.93-1.22-1.3-2.56-6.52-5-9.52-2.82-.11-3.1-2.95-5.52-6.94-6.14C389,34.05,385.82,33.87,384.29,35.13Z" style="fill:#f5f5f5"></path><path id="freepik--cloud--inject-92" d="M257.16,59.67c.08-3.73-4-6.43-8.57-7-5.46-.64-9.4,1.7-9.63,6-3.54-1.55-7.33-.7-7.14,3.24-.91-1.09-4.39-1.15-5.64-.88A4.92,4.92,0,0,0,223,63.63a3.63,3.63,0,0,0-.37,2c-2.07-.74-6.8-1.27-8,.62-2.19,3.35,6.24,3.66,8,2.67.3,2.65,9.35,3.3,11.6.91,1.67,1.77,4.12,2.21,6.78,2.43,4.47.38,7.26-1.08,10.8-2.78,3.72,3.31,10.3,3.53,13.81-.08.85.85,3.26,1.16,5.2.75,1.27-.28,1.57-.81,1.57-.81a11.38,11.38,0,0,0,2.31.76c2.48.58,7.11.14,5.23-2.15-.65-.78-3.05-1.32-4.09-1.11-1-2.15-5.33-4.28-7.87-2.53,0-2.59-2.35-4.67-5.66-5.26C261.13,58.86,258.46,58.65,257.16,59.67Z" style="fill:#f5f5f5"></path><path id="freepik--cloud--inject-92" d="M95.16,48c0-5.62-6.16-9.52-13.14-10.18C73.8,37,68,40.66,67.78,47.13c-5.38-2.21-11-.79-10.62,5.12-1.39-1.61-6.63-1.57-8.5-1.12a7.33,7.33,0,0,0-4.68,4,5.37,5.37,0,0,0-.49,3c-3.14-1-10.26-1.65-12,1.22-3.17,5.12,9.5,5.28,12.05,3.73.55,4,14.16,4.64,17.46,1,2.58,2.6,6.28,3.17,10.27,3.41,6.74.4,10.87-1.88,16.13-4.57,5.71,4.85,15.6,4.94,20.75-.61,1.31,1.24,4.93,1.63,7.83.94,1.9-.46,2.34-1.27,2.34-1.27a16.51,16.51,0,0,0,3.5,1c3.73.78,10.69,0,7.77-3.41-1-1.14-4.63-1.87-6.17-1.52-1.63-3.2-8.17-6.24-11.93-3.53-.14-3.88-3.69-6.92-8.69-7.69C101.09,46.59,97.07,46.37,95.16,48Z" style="fill:#f5f5f5"></path></g><g id="freepik--Shadow--inject-92"><path id="freepik--shadow--inject-92" d="M384.58,208.26l54.53,31.49a.85.85,0,0,1,0,1.6L393.2,267.91a3.07,3.07,0,0,1-2.77,0l-54.52-31.49a.84.84,0,0,1,0-1.6l45.9-26.56A3,3,0,0,1,384.58,208.26Z" style="fill:#e0e0e0"></path></g><g id="freepik--Target--inject-92"><g id="freepik--target--inject-92"><g id="freepik--Canvas--inject-92"><polygon points="354.15 215.27 354.15 213.28 389.49 233.72 387.8 234.72 354.15 215.27" style="fill:#37474f"></polygon><path d="M391.27,167.74a.46.46,0,0,0-.22.51l21.17,60.26.84,3.68a2.14,2.14,0,0,0,1.17-.23h0l2-1.14a.49.49,0,0,0,.22-.51l-22-63.71a.47.47,0,0,0-.69-.3Z" style="fill:#37474f"></path><path d="M387.6,166l22.1,64.33a.79.79,0,0,0,.38.51l2,1.14a2.11,2.11,0,0,0,1,.24l-.84-3.68L391,167.92Z" style="fill:#455a64"></path><path d="M391.16,259.6v3.88a2.25,2.25,0,0,0,1.09-.25s0,0,0,0l1.83-1a.75.75,0,0,0,.44-.63V191.29l-3.38,2Z" style="fill:#37474f"></path><path d="M387.79,191.3v70.27a.77.77,0,0,0,.45.59l1.81,1a2.11,2.11,0,0,0,1.1.27V193.24Z" style="fill:#455a64"></path><path d="M347.48,238.26a2.26,2.26,0,0,0,1-.31l1.88-1.08a1,1,0,0,0,.46-.65l20.08-58.56-3.37,2L348.2,234.49Z" style="fill:#37474f"></path><path d="M344.11,236.3h0a.79.79,0,0,0,.47.64l1.71,1,.08.05a2.25,2.25,0,0,0,1.11.27l.72-3.77,19.37-54.88-3.38-1.94-20,58.48v0Z" style="fill:#455a64"></path><polygon points="388.96 239.26 350.78 217.22 353.55 214.93 388.96 235.37 388.96 239.26" style="fill:#455a64"></polygon></g><g id="freepik--target--inject-92"><g id="freepik--target--inject-92"><path d="M360.45,130.05c5.07-2.94,12.07-2.52,19.81,1.95,15.47,8.93,28,30.66,28,48.52,0,9-3.16,15.25-8.26,18.16-1.33.76-6.69,4-8,4.77-5.07,2.93-12.07,2.51-19.81-1.95-15.47-8.93-28-30.66-28-48.52,0-8.93,3.14-15.2,8.2-18.13" style="fill:#0B1C2E"></path><path d="M408.27,180.52h0c0,9-3.16,15.25-8.26,18.16-1.33.76-6.69,4-8,4.77-5.07,2.93-12.07,2.52-19.8-1.95Z" style="opacity:0.65"></path><path d="M404.19,161.33a52.08,52.08,0,0,1,4.08,19.19l-36.09,21h0a52.09,52.09,0,0,1-14.57-13.14Z" style="opacity:0.55"></path><path d="M357.6,188.36C349.54,178,344.16,164.68,344.16,153c0-8.93,3.14-15.2,8.2-18.13l8.09-4.8c5.07-2.94,12.07-2.52,19.81,1.95,10.13,5.85,19,17.19,23.93,29.33Z" style="opacity:0.4"></path><path d="M372.18,136.8c15.47,8.94,28,30.66,28,48.52s-12.55,25.11-28,16.18-28-30.66-28-48.52S356.72,127.87,372.18,136.8Z" style="fill:#0B1C2E"></path><path d="M372.18,136.8c15.47,8.94,28,30.66,28,48.52s-12.55,25.11-28,16.18-28-30.66-28-48.52S356.72,127.87,372.18,136.8Z" style="opacity:0.2"></path><path d="M372.18,144.88c11.6,6.7,21,23,21,36.4s-9.41,18.84-21,12.14-21-23-21-36.4S360.57,138.18,372.18,144.88Z" style="fill:#fafafa"></path><path d="M372.18,152.24c8.08,4.67,14.64,16,14.64,25.36s-6.56,13.13-14.64,8.46-14.65-16-14.65-25.37S364.09,147.57,372.18,152.24Z" style="fill:#0B1C2E"></path><path d="M372.18,152.24c8.08,4.67,14.64,16,14.64,25.36s-6.56,13.13-14.64,8.46-14.65-16-14.65-25.37S364.09,147.57,372.18,152.24Z" style="opacity:0.2"></path><path d="M372.18,159.79c4.47,2.58,8.1,8.87,8.1,14s-3.63,7.26-8.1,4.68-8.11-8.87-8.11-14S367.7,157.2,372.18,159.79Z" style="fill:#fafafa"></path><path d="M372.18,165.2a7.58,7.58,0,0,1,3.42,5.92c0,2.18-1.54,3.07-3.42,2a7.55,7.55,0,0,1-3.42-5.92C368.76,165,370.29,164.11,372.18,165.2Z" style="fill:#455a64"></path></g><g id="freepik--Arrow--inject-92"><path d="M334.77,191.05s-.45,5.61-3,7.11-4-3-2.32-4Z" style="fill:#0B1C2E"></path><path d="M334.77,191.05s-5.08-2.42-7.67-.92.63,5,2.31,4Z" style="fill:#0B1C2E"></path><path d="M334.77,191.05s-5.08-2.42-7.67-.92.63,5,2.31,4Z" style="fill:#fff;opacity:0.5"></path><polygon points="365.5 173.95 325.6 197 325.03 196.01 365.59 172.58 365.5 173.95" style="fill:#37474f"></polygon><circle cx="325.45" cy="196.34" r="1.68" style="fill:#263238"></circle><path d="M364.5,173.87c-1.37,1.81,1.12,4.95,1.12,4.95l6.47-9.33Z" style="fill:#0B1C2E"></path><path d="M364.5,173.87c-1.37,1.81,1.12,4.95,1.12,4.95l6.47-9.33Z" style="fill:#0B1C2E"></path><path d="M360.77,170.43s1.48,3.72,3.73,3.44l7.59-4.38Z" style="fill:#0B1C2E"></path><path d="M360.77,170.43s1.48,3.72,3.73,3.44l7.59-4.38Z" style="fill:#fff;opacity:0.5"></path></g></g></g></g><g id="freepik--Plant--inject-92"><g id="freepik--plants--inject-92"><g id="freepik--plants--inject-92"><path d="M408.74,248.73a5.26,5.26,0,0,1-.22-5.59c1.29-2.41,3.65-4.14,4-4.08s1.15,2.85,0,5.83A6.13,6.13,0,0,1,408.74,248.73Z" style="fill:#0B1C2E"></path><path d="M410.08,255.37a5.23,5.23,0,0,1,2.37-5.07c2.24-1.56,5.13-2,5.39-1.82s-.28,3.06-2.67,5.19A6.12,6.12,0,0,1,410.08,255.37Z" style="fill:#0B1C2E"></path><path d="M405.7,260.13a5.22,5.22,0,0,1-4.58-3.2c-1.15-2.48-1.26-5.15-1-5.38s3.28.87,5,3.2A5.5,5.5,0,0,1,405.7,260.13Z" style="fill:#0B1C2E"></path><path d="M408,259.77a57.1,57.1,0,0,0,.42,6.38l-1.06.22h-.11a53.73,53.73,0,0,1,.33-13.41,28.41,28.41,0,0,1,2.48-8.84c0-.06.18,0,.16,0a43.84,43.84,0,0,0-1.66,8.16A50.18,50.18,0,0,0,408,259.77Z" style="fill:#37474f"></path><path d="M407,261.9a16.41,16.41,0,0,1-2.46-2.67,9.15,9.15,0,0,1-1.62-3.07c0-.15.16,0,.21.08a26.87,26.87,0,0,0,1.8,2.53,11.7,11.7,0,0,0,2.42,2.24.7.7,0,0,1,.27.79A.38.38,0,0,1,407,261.9Z" style="fill:#37474f"></path><path d="M407.14,259.56a13.54,13.54,0,0,1,2.61-4.45,15.49,15.49,0,0,1,1.6-1.74,9.68,9.68,0,0,1,2.29-1.61s.27,0,.21,0a24.55,24.55,0,0,0-2,1.86,14.46,14.46,0,0,0-1.6,1.91,23,23,0,0,0-2.48,4.32C407.61,260.19,407.05,259.85,407.14,259.56Z" style="fill:#37474f"></path></g></g></g><g id="freepik--Sight--inject-92"><g id="freepik--Scope--inject-92"><g id="freepik--target--inject-92"><g id="freepik--target--inject-92"><path d="M148.37,210.61c9.72-5.62,23.15-4.82,38,3.74,29.65,17.13,53.69,58.77,53.69,93,0,17.18-6.06,29.23-15.84,34.81-2.55,1.46-12.83,7.66-15.39,9.15-9.72,5.61-23.14,4.81-38-3.75-29.65-17.13-53.69-58.77-53.69-93,0-17.11,6-29.13,15.71-34.74" style="fill:#0B1C2E"></path><path d="M240.05,307.37h0c0,17.18-6.06,29.23-15.84,34.81-2.55,1.46-12.83,7.66-15.39,9.15-9.72,5.61-23.14,4.81-38-3.75Z" style="opacity:0.65"></path><path d="M232.22,270.58c5,12.27,7.83,25,7.83,36.79l-69.19,40.21h0c-10.23-5.91-19.8-14.74-27.94-25.18Z" style="opacity:0.55"></path><path d="M142.91,322.4c-15.44-19.81-25.75-45.41-25.75-67.84,0-17.11,6-29.13,15.71-34.74l15.5-9.21c9.72-5.62,23.15-4.82,38,3.74,19.42,11.22,36.43,33,45.86,56.23Z" style="opacity:0.4"></path><path d="M170.86,223.56c29.65,17.13,53.7,58.77,53.69,93s-24.05,48.13-53.7,31-53.72-58.77-53.69-93S141.23,206.44,170.86,223.56Z" style="fill:#0B1C2E"></path><path d="M170.86,223.56c29.65,17.13,53.7,58.77,53.69,93s-24.05,48.13-53.7,31-53.72-58.77-53.69-93S141.23,206.44,170.86,223.56Z" style="opacity:0.2"></path><path d="M170.86,239.05c22.24,12.85,40.28,44.09,40.28,69.78s-18,36.1-40.29,23.25S130.57,288,130.57,262.31,148.61,226.2,170.86,239.05Z" style="fill:#fafafa"></path><path d="M170.86,253.15c15.5,9,28.07,30.72,28.06,48.62S186.35,326.93,170.85,318s-28.07-30.72-28.07-48.62S155.35,244.2,170.86,253.15Z" style="fill:#0B1C2E"></path><path d="M170.86,253.15c15.5,9,28.07,30.72,28.06,48.62S186.35,326.93,170.85,318s-28.07-30.72-28.07-48.62S155.35,244.2,170.86,253.15Z" style="opacity:0.2"></path><path d="M170.85,267.62c8.59,5,15.54,17,15.54,26.92s-7,13.92-15.54,9-15.53-17-15.53-26.91S162.27,262.67,170.85,267.62Z" style="fill:#fafafa"></path><path d="M170.85,278a14.49,14.49,0,0,1,6.56,11.35c0,4.18-2.94,5.88-6.56,3.79a14.5,14.5,0,0,1-6.55-11.36C164.3,277.6,167.23,275.91,170.85,278Z" style="fill:#455a64"></path></g><g id="freepik--arrow--inject-92"><path d="M99.14,327.55s-.85,10.76-5.82,13.62-7.66-5.83-4.44-7.69Z" style="fill:#0B1C2E"></path><path d="M99.14,327.55s-9.74-4.64-14.71-1.77,1.23,9.56,4.45,7.7Z" style="fill:#0B1C2E"></path><path d="M99.14,327.55s-9.74-4.64-14.71-1.77,1.23,9.56,4.45,7.7Z" style="fill:#fff;opacity:0.5"></path><polygon points="158.05 294.78 81.56 338.96 80.48 337.05 158.22 292.15 158.05 294.78" style="fill:#37474f"></polygon><path d="M82.89,334.9a3.22,3.22,0,1,1-4.39,1.18A3.23,3.23,0,0,1,82.89,334.9Z" style="fill:#263238"></path><path d="M156.15,294.61c-2.64,3.48,2.13,9.49,2.13,9.49l12.41-17.89Z" style="fill:#0B1C2E"></path><path d="M156.15,294.61c-2.64,3.48,2.13,9.49,2.13,9.49l12.41-17.89Z" style="fill:#0B1C2E"></path><path d="M149,288s2.82,7.14,7.15,6.59l14.54-8.4Z" style="fill:#0B1C2E"></path><path d="M149,288s2.82,7.14,7.15,6.59l14.54-8.4Z" style="fill:#fff;opacity:0.5"></path></g></g><polygon points="144.02 382.72 176.84 401.66 176.84 477.44 144.02 458.5 144.02 382.72" style="fill:#37474f"></polygon><polygon points="144.02 382.72 176.84 401.66 193.24 392.19 160.43 373.25 144.02 382.72" style="fill:#37474f"></polygon><polygon points="176.84 477.44 193.24 467.97 193.24 392.19 176.84 401.66 176.84 477.44" style="fill:#455a64"></polygon><path d="M49.19,251.47c-1.95,59.32,38.91,130.1,91.26,158.07,15.22,8.14,29.73,11.76,42.71,11.35a53.53,53.53,0,0,0,25.35-7l31.72-18.42C258,385.2,269.53,364,270.5,334.36c1.95-59.34-38.92-130.11-91.26-158.09-26.19-14-50.28-14.62-68.07-4.36L79.4,190.38C61.64,200.65,50.16,221.83,49.19,251.47Zm47.05-18.79c.46-14.07,3.54-25.77,8.84-34.55,10.39-.17,22.25,3.14,34.34,9.61C162.48,220.07,184,242.11,200,269.8s24.31,57.32,23.45,83.46c-.46,14.08-3.54,25.78-8.85,34.56-10.39.16-22.23-3.17-34.32-9.62-23.07-12.33-44.58-34.37-60.56-62.05S95.38,258.82,96.24,232.68Z" style="fill:#455a64"></path><path d="M228.67,219.12l-45.35,26.29A193.35,193.35,0,0,1,200,269.8c1,1.7,1.94,3.42,2.87,5.14L248.1,248.7A205.82,205.82,0,0,0,228.67,219.12ZM160,221.66a155.54,155.54,0,0,1,13,12.06l45.55-26.4A175.77,175.77,0,0,0,206,195Z" style="fill:#fff;opacity:0.1"></path><path d="M208.64,413.82l31.59-18.34C258,385.2,269.53,364,270.5,334.36c0-1.14,0-2.27,0-3.43l-31.7,18.42c0,1.15,0,2.29-.07,3.43C237.8,382.36,226.35,403.52,208.64,413.82Z" style="fill:#37474f"></path><path d="M64.52,251C63.67,277.12,72,306.78,88,334.46s37.49,49.73,60.56,62c12.39,6.62,24.52,9.94,35.1,9.61,13.47-.43,24.07-6.9,30.94-18.29-10.39.16-22.23-3.17-34.32-9.62-23.07-12.33-44.58-34.37-60.56-62.05s-24.32-57.33-23.46-83.47c.46-14.07,3.54-25.77,8.84-34.55-.26,0-.52,0-.77,0C80.45,198.89,65.59,218.65,64.52,251Z" style="fill:#263238"></path><path d="M79.28,242.5c-.86,26.14,7.47,55.79,23.46,83.48s37.49,49.72,60.56,62c12.39,6.62,24.52,9.94,35.1,9.61a39.64,39.64,0,0,0,9.55-1.44h0a41.56,41.56,0,0,0,6.62-8.37c5.31-8.78,8.39-20.48,8.85-34.56.86-26.14-7.46-55.78-23.45-83.46s-37.5-49.73-60.56-62.06c-12.09-6.47-23.95-9.78-34.34-9.61-.26,0-.52,0-.77,0a37.94,37.94,0,0,0-9.59,1.47C85.39,208.59,79.91,223.34,79.28,242.5Z" style="fill:#fff;opacity:0.4"></path><path d="M166.16,374.53h0a1.43,1.43,0,0,0-.72-1.23l-.86-.5c-19.13-11.28-37-30.26-50.43-53.44S93.29,271.18,93.1,249c0-.62,0-1.23,0-1.83h0l-.72-.41A1.41,1.41,0,0,0,90.26,248c0,.35,0,.7,0,1.06.2,22.67,7.81,48.15,21.44,71.75s31.88,42.94,51.43,54.46l.9.53A1.42,1.42,0,0,0,166.16,374.53Z" style="fill:#455a64"></path><path d="M118.23,195.43c13.13-7.57,29.12-8,46-1.31a1.41,1.41,0,0,0,1.91-1.32v0a1.42,1.42,0,0,0-.9-1.32c-17.71-7-34.55-6.49-48.44,1.53s-22.71,22.36-25.55,41.19a1.42,1.42,0,0,0,.69,1.44h0a1.41,1.41,0,0,0,2.1-1C96.77,216.66,105.11,203,118.23,195.43Z" style="fill:#455a64"></path><path d="M175.59,198.72h0a1.41,1.41,0,0,0,.7,1.22l.88.51c19.12,11.26,37,30.24,50.4,53.42s20.88,48.18,21.08,70.39v1a1.43,1.43,0,0,0,.7,1.24,1.42,1.42,0,0,0,2.12-1.22v-1c-.21-22.69-7.83-48.17-21.45-71.77S198.14,209.53,178.6,198l-.9-.52A1.41,1.41,0,0,0,175.59,198.72Z" style="fill:#455a64"></path><path d="M250.48,339.05a1.41,1.41,0,0,0-.7-1.44h0a1.4,1.4,0,0,0-2.09,1c-2.7,17.95-11,31.62-24.16,39.2s-29.12,8-46,1.32a1.4,1.4,0,0,0-1.9,1.32v0a1.42,1.42,0,0,0,.89,1.32c17.73,6.94,34.56,6.49,48.45-1.53S247.63,357.87,250.48,339.05Z" style="fill:#455a64"></path><path d="M244.55,327.52l-8-4.63c-.38-40.93-29-90.48-64.25-111.27V201.25a1.42,1.42,0,1,0-2.83,0V210c-16.83-9.11-32.64-10.3-44.73-3.33s-19,21.28-19.49,40.41l-7.59-4.38a1.42,1.42,0,0,0-1.93.51,1.42,1.42,0,0,0,.52,1.94l9,5.18c.19,20.47,7.42,43.09,19,63.2s27.58,37.68,45.22,48.08V372a1.41,1.41,0,0,0,.19.7,1.43,1.43,0,0,0,1.23.71,1.41,1.41,0,0,0,1.41-1.41v-8.76c16.83,9.1,32.65,10.3,44.74,3.32s18.95-21.28,19.49-40.4l6.62,3.82a1.41,1.41,0,0,0,1.41-2.45ZM215.61,364.1c-11.51,6.65-26.87,5.18-43.32-4.1V349.66a1.41,1.41,0,1,0-2.82,0v8.65C136.1,337.78,109.18,291.15,108.08,252l7.5,4.33a1.41,1.41,0,1,0,1.41-2.45l-9-5.17c.18-18.88,6.59-32.92,18.11-39.57S153,204,169.46,213.24v10.34a1.41,1.41,0,0,0,.19.7,1.43,1.43,0,0,0,1.23.71,1.41,1.41,0,0,0,1.41-1.41v-8.66c33.36,20.54,60.28,67.17,61.39,106.32l-6.53-3.77a1.41,1.41,0,0,0-1.93.52,1.37,1.37,0,0,0,0,1.41,1.41,1.41,0,0,0,.51.52l8,4.61C233.54,343.42,227.13,357.45,215.61,364.1Z" style="fill:#455a64"></path><path d="M170.87,344.75a.5.5,0,0,1-.5-.5v-116a.5.5,0,0,1,.5-.5.5.5,0,0,1,.5.5V344.25A.5.5,0,0,1,170.87,344.75Z" style="fill:#0B1C2E"></path><path d="M173.73,234.21a.45.45,0,0,1-.25-.07l-5.71-3.29a.49.49,0,0,1-.18-.68.5.5,0,0,1,.68-.19l5.71,3.3a.5.5,0,0,1-.25.93Z" style="fill:#0B1C2E"></path><path d="M173.73,239.91a.54.54,0,0,1-.25-.06l-5.71-3.3a.49.49,0,0,1-.18-.68.5.5,0,0,1,.68-.19L174,239a.5.5,0,0,1-.25.93Z" style="fill:#0B1C2E"></path><path d="M173.73,245.61a.54.54,0,0,1-.25-.06l-5.71-3.3a.5.5,0,0,1,.5-.86l5.71,3.29a.5.5,0,0,1-.25.93Z" style="fill:#0B1C2E"></path><path d="M173.73,251.32a.55.55,0,0,1-.25-.07l-5.71-3.3a.5.5,0,1,1,.5-.86l5.71,3.29a.51.51,0,0,1,.18.69A.5.5,0,0,1,173.73,251.32Z" style="fill:#0B1C2E"></path><path d="M173.73,257a.45.45,0,0,1-.25-.07l-5.71-3.3a.5.5,0,0,1,.5-.86l5.71,3.29a.51.51,0,0,1,.18.69A.5.5,0,0,1,173.73,257Z" style="fill:#0B1C2E"></path><path d="M173.73,262.72a.45.45,0,0,1-.25-.07l-5.71-3.29a.51.51,0,0,1-.18-.69.49.49,0,0,1,.68-.18l5.71,3.3a.5.5,0,0,1-.25.93Z" style="fill:#0B1C2E"></path><path d="M173.73,268.42a.45.45,0,0,1-.25-.07l-5.71-3.29a.51.51,0,0,1-.18-.69.49.49,0,0,1,.68-.18l5.71,3.3a.5.5,0,0,1-.25.93Z" style="fill:#0B1C2E"></path><path d="M173.73,274.12a.45.45,0,0,1-.25-.07l-5.71-3.29a.5.5,0,0,1,.5-.87l5.71,3.3a.5.5,0,0,1-.25.93Z" style="fill:#0B1C2E"></path><path d="M173.73,279.82a.45.45,0,0,1-.25-.07l-5.71-3.29a.49.49,0,0,1-.18-.68.5.5,0,0,1,.68-.19l5.71,3.3a.5.5,0,0,1-.25.93Z" style="fill:#0B1C2E"></path><path d="M173.73,285.52a.54.54,0,0,1-.25-.06l-5.71-3.3a.49.49,0,0,1-.18-.68.5.5,0,0,1,.68-.19l5.71,3.3a.5.5,0,0,1-.25.93Z" style="fill:#0B1C2E"></path><path d="M173.73,291.23a.55.55,0,0,1-.25-.07l-5.71-3.3a.5.5,0,0,1,.5-.86l5.71,3.29a.51.51,0,0,1,.18.69A.5.5,0,0,1,173.73,291.23Z" style="fill:#0B1C2E"></path><path d="M173.73,296.93a.45.45,0,0,1-.25-.07l-5.71-3.3a.5.5,0,0,1,.5-.86L174,296a.51.51,0,0,1,.18.69A.5.5,0,0,1,173.73,296.93Z" style="fill:#0B1C2E"></path><path d="M173.73,302.63a.45.45,0,0,1-.25-.07l-5.71-3.3a.5.5,0,0,1,.5-.86l5.71,3.3a.5.5,0,0,1-.25.93Z" style="fill:#0B1C2E"></path><path d="M173.73,308.33a.45.45,0,0,1-.25-.07L167.77,305a.51.51,0,0,1-.18-.69.49.49,0,0,1,.68-.18l5.71,3.3a.5.5,0,0,1-.25.93Z" style="fill:#0B1C2E"></path><path d="M173.73,314a.45.45,0,0,1-.25-.07l-5.71-3.29a.51.51,0,0,1-.18-.69.5.5,0,0,1,.68-.18l5.71,3.3a.5.5,0,0,1-.25.93Z" style="fill:#0B1C2E"></path><path d="M173.73,319.73a.45.45,0,0,1-.25-.07l-5.71-3.29a.49.49,0,0,1-.18-.68.5.5,0,0,1,.68-.19l5.71,3.3a.5.5,0,0,1-.25.93Z" style="fill:#0B1C2E"></path><path d="M173.73,325.43a.54.54,0,0,1-.25-.06l-5.71-3.3a.49.49,0,0,1-.18-.68.5.5,0,0,1,.68-.19l5.71,3.3a.5.5,0,0,1-.25.93Z" style="fill:#0B1C2E"></path><path d="M173.73,331.13a.54.54,0,0,1-.25-.06l-5.71-3.3a.5.5,0,0,1,.5-.86L174,330.2a.5.5,0,0,1-.25.93Z" style="fill:#0B1C2E"></path><path d="M173.73,336.84a.55.55,0,0,1-.25-.07l-5.71-3.3a.5.5,0,0,1,.5-.86L174,335.9a.51.51,0,0,1,.18.69A.5.5,0,0,1,173.73,336.84Z" style="fill:#0B1C2E"></path><path d="M173.73,342.54a.45.45,0,0,1-.25-.07l-5.71-3.3a.5.5,0,0,1,.5-.86L174,341.6a.51.51,0,0,1,.18.69A.5.5,0,0,1,173.73,342.54Z" style="fill:#0B1C2E"></path><path d="M221.35,316.09a.57.57,0,0,1-.25-.06l-101-58.31a.5.5,0,1,1,.5-.86l101,58.3a.5.5,0,0,1-.25.93Z" style="fill:#0B1C2E"></path><path d="M218,317.36a.5.5,0,0,1-.5-.5v-6.77a.5.5,0,0,1,.5-.5.5.5,0,0,1,.5.5v6.77A.51.51,0,0,1,218,317.36Z" style="fill:#0B1C2E"></path><path d="M213,314.49a.5.5,0,0,1-.5-.5v-6.76a.5.5,0,0,1,.5-.5.5.5,0,0,1,.5.5V314A.5.5,0,0,1,213,314.49Z" style="fill:#0B1C2E"></path><path d="M208.07,311.63a.5.5,0,0,1-.5-.5v-6.77a.5.5,0,0,1,.5-.5.5.5,0,0,1,.5.5v6.77A.5.5,0,0,1,208.07,311.63Z" style="fill:#0B1C2E"></path><path d="M203.1,308.77h0a.51.51,0,0,1-.5-.5V301.5a.5.5,0,0,1,.5-.5h0a.5.5,0,0,1,.5.5v6.77A.5.5,0,0,1,203.1,308.77Z" style="fill:#0B1C2E"></path><path d="M198.14,305.9a.5.5,0,0,1-.5-.5v-6.77a.51.51,0,0,1,.5-.5.5.5,0,0,1,.5.5v6.77A.5.5,0,0,1,198.14,305.9Z" style="fill:#0B1C2E"></path><path d="M193.18,303a.51.51,0,0,1-.5-.5v-6.77a.5.5,0,0,1,.5-.5.5.5,0,0,1,.5.5v6.77A.5.5,0,0,1,193.18,303Z" style="fill:#0B1C2E"></path><path d="M188.22,300.17a.5.5,0,0,1-.5-.5V292.9a.51.51,0,0,1,.5-.5.5.5,0,0,1,.5.5v6.77A.5.5,0,0,1,188.22,300.17Z" style="fill:#0B1C2E"></path><path d="M183.26,297.31a.5.5,0,0,1-.5-.5V290a.5.5,0,0,1,1,0v6.77A.5.5,0,0,1,183.26,297.31Z" style="fill:#0B1C2E"></path><path d="M178.3,294.44a.5.5,0,0,1-.5-.5v-6.76a.5.5,0,0,1,.5-.5.5.5,0,0,1,.5.5v6.76A.5.5,0,0,1,178.3,294.44Z" style="fill:#0B1C2E"></path><path d="M173.34,291.58a.5.5,0,0,1-.5-.5v-6.77a.5.5,0,0,1,.5-.5.51.51,0,0,1,.5.5v6.77A.5.5,0,0,1,173.34,291.58Z" style="fill:#0B1C2E"></path><path d="M168.38,288.71a.5.5,0,0,1-.5-.5v-6.76a.5.5,0,0,1,.5-.5.5.5,0,0,1,.5.5v6.76A.5.5,0,0,1,168.38,288.71Z" style="fill:#0B1C2E"></path><path d="M163.41,285.85a.5.5,0,0,1-.5-.5v-6.77a.51.51,0,0,1,.5-.5.5.5,0,0,1,.5.5v6.77A.5.5,0,0,1,163.41,285.85Z" style="fill:#0B1C2E"></path><path d="M158.45,283a.51.51,0,0,1-.5-.5v-6.77a.5.5,0,0,1,.5-.5.5.5,0,0,1,.5.5v6.77A.5.5,0,0,1,158.45,283Z" style="fill:#0B1C2E"></path><path d="M153.49,280.12a.5.5,0,0,1-.5-.5v-6.77a.51.51,0,0,1,.5-.5.5.5,0,0,1,.5.5v6.77A.5.5,0,0,1,153.49,280.12Z" style="fill:#0B1C2E"></path><path d="M148.53,277.26a.5.5,0,0,1-.5-.5V270a.5.5,0,0,1,1,0v6.77A.5.5,0,0,1,148.53,277.26Z" style="fill:#0B1C2E"></path><path d="M143.57,274.39a.5.5,0,0,1-.5-.5v-6.77a.5.5,0,0,1,1,0v6.77A.5.5,0,0,1,143.57,274.39Z" style="fill:#0B1C2E"></path><path d="M138.61,271.53h0a.5.5,0,0,1-.5-.5v-6.77a.5.5,0,0,1,.5-.5h0a.5.5,0,0,1,.5.5V271A.51.51,0,0,1,138.61,271.53Z" style="fill:#0B1C2E"></path><path d="M133.65,268.66a.5.5,0,0,1-.5-.5V261.4a.5.5,0,0,1,.5-.5.5.5,0,0,1,.5.5v6.76A.5.5,0,0,1,133.65,268.66Z" style="fill:#0B1C2E"></path><path d="M128.69,265.8a.5.5,0,0,1-.5-.5v-6.77a.5.5,0,0,1,.5-.5.5.5,0,0,1,.5.5v6.77A.5.5,0,0,1,128.69,265.8Z" style="fill:#0B1C2E"></path><path d="M123.73,262.94a.5.5,0,0,1-.5-.5v-6.77a.5.5,0,0,1,.5-.5.5.5,0,0,1,.5.5v6.77A.51.51,0,0,1,123.73,262.94Z" style="fill:#0B1C2E"></path><path d="M49.18,251.47c-1.94,59.33,38.92,130.1,91.27,158.08s96.37,2.56,98.32-56.77-38.91-130.1-91.26-158.08S51.13,192.14,49.18,251.47Zm38.8,83C72,306.78,63.67,277.12,64.52,251c1.07-32.33,15.93-52.09,39.79-52.84.25,0,.51,0,.77,0,10.39-.17,22.25,3.14,34.34,9.61C162.48,220.07,184,242.11,200,269.8s24.31,57.32,23.45,83.46c-.46,14.08-3.54,25.78-8.85,34.56-6.87,11.39-17.47,17.86-30.94,18.29-10.58.33-22.71-3-35.1-9.61C125.47,384.19,104,362.15,88,334.46Z" style="fill:#37474f"></path><g style="opacity:0.30000000000000004"><path d="M218.08,270.36A197.61,197.61,0,0,1,236,322.6a143.09,143.09,0,0,1,2.37,27.77,102.9,102.9,0,0,1-4.09,27.89c-2.76,9.06-7,17.95-13.61,25.21a50.64,50.64,0,0,1-24.73,15.19,62.8,62.8,0,0,1-28.78.49,99.63,99.63,0,0,1-26.67-9.6A99.43,99.43,0,0,0,167,419.68a63.3,63.3,0,0,0,29.09-.31,51.61,51.61,0,0,0,25.27-15.32c6.76-7.36,11.16-16.37,14-25.55a103.18,103.18,0,0,0,3.94-28.18,142.78,142.78,0,0,0-2.57-27.9,182.07,182.07,0,0,0-7.34-26.8A209.3,209.3,0,0,0,218.08,270.36Z" style="fill:#fff"></path></g><g style="opacity:0.30000000000000004"><path d="M104.31,198.14a39,39,0,0,0-14.24,3,35.82,35.82,0,0,0-12,8.46,45.14,45.14,0,0,0-8,12.19,63.77,63.77,0,0,0-4.46,13.61,104.93,104.93,0,0,0-1.74,28,144.46,144.46,0,0,0,4.49,27.34,165.73,165.73,0,0,0,9.11,26A195.56,195.56,0,0,0,90.25,341a176.87,176.87,0,0,0,35.62,41.89,129.34,129.34,0,0,0,23.22,15.56c8.38,4.27,17.47,7.62,27.22,8.7a46.47,46.47,0,0,0,14.85-.63A36.77,36.77,0,0,0,205,400.29a36,36,0,0,0,5.63-5.11,39.3,39.3,0,0,0,4.51-6,54,54,0,0,0,5.92-13.35,91.15,91.15,0,0,0,3.36-28,135,135,0,0,0-3.59-27.49,166.36,166.36,0,0,0-8.53-26.11A187.11,187.11,0,0,0,200,269.8c8.73,16,15.69,33,19.4,50.89a135.91,135.91,0,0,1,3.13,27.25,90,90,0,0,1-3.68,27.38A52.5,52.5,0,0,1,213,388a37,37,0,0,1-9.49,10.27A33.47,33.47,0,0,1,190.73,404a43.75,43.75,0,0,1-13.93.52c-9.26-1.07-18.07-4.34-26.2-8.54A127.15,127.15,0,0,1,128,380.6a174.44,174.44,0,0,1-35.3-41.1A189.94,189.94,0,0,1,70.6,290a140.92,140.92,0,0,1-4.84-26.89A103.85,103.85,0,0,1,67,235.54a61.7,61.7,0,0,1,4-13.42A44.34,44.34,0,0,1,78.61,210a35.18,35.18,0,0,1,11.63-8.55A39,39,0,0,1,104.31,198.14Z" style="fill:#fff"></path></g><path d="M179.23,176.27c-26.18-14-50.27-14.61-68.06-4.35L79.4,190.38c17.79-10.3,41.9-9.67,68.1,4.33,52.36,28,93.22,98.75,91.27,158.08-1,29.42-12.28,50.5-29.84,60.87l31.29-18.18C258,385.21,269.52,364,270.5,334.36,272.45,275,231.58,204.26,179.23,176.27Z" style="fill:#455a64"></path></g></g></svg>
